<?xml version="1.0" encoding="UTF-8" standalone="no"?>
<!-- Created with Inkscape (http://www.inkscape.org/) -->
<svg
   xmlns:dc="http://purl.org/dc/elements/1.1/"
   xmlns:cc="http://web.resource.org/cc/"
   xmlns:rdf="http://www.w3.org/1999/02/22-rdf-syntax-ns#"
   xmlns:svg="http://www.w3.org/2000/svg"
   xmlns="http://www.w3.org/2000/svg"
   xmlns:sodipodi="http://sodipodi.sourceforge.net/DTD/sodipodi-0.dtd"
   xmlns:inkscape="http://www.inkscape.org/namespaces/inkscape"
   width="640px"
   height="480px"
   id="svg2356"
   sodipodi:version="0.32"
   inkscape:version="0.45.1"
   sodipodi:docbase="/Users/johncarroll/Desktop/SVG"
   sodipodi:docname="mario_vintage_walk2.svg"
   inkscape:output_extension="org.inkscape.output.svg.inkscape">
  <defs
     id="defs2358" />
  <sodipodi:namedview
     id="base"
     pagecolor="#ffffff"
     bordercolor="#666666"
     borderopacity="1.0"
     inkscape:pageopacity="0.0"
     inkscape:pageshadow="2"
     inkscape:zoom="0.77472528"
     inkscape:cx="402.93714"
     inkscape:cy="191.08015"
     inkscape:current-layer="layer1"
     inkscape:document-units="px"
     inkscape:window-width="1148"
     inkscape:window-height="669"
     inkscape:window-x="55"
     inkscape:window-y="30"
     showguides="true"
     inkscape:guide-bbox="true" />
  <metadata
     id="metadata2361">
    <rdf:RDF>
      <cc:Work
         rdf:about="">
        <dc:format>image/svg+xml</dc:format>
        <dc:type
           rdf:resource="http://purl.org/dc/dcmitype/StillImage" />
      </cc:Work>
    </rdf:RDF>
  </metadata>
  <g
     id="layer1"
     inkscape:label="Layer 1"
     inkscape:groupmode="layer">
    <path
       style="fill:#ff0000;fill-rule:evenodd;stroke:#000000;stroke-width:4;stroke-linecap:butt;stroke-linejoin:miter;stroke-miterlimit:4;stroke-dasharray:none;stroke-opacity:1"
       d="M 311.79941,322.266 C 318.27197,314.68847 341.13038,284.24622 347.78959,277.34386 C 415.51549,206.50812 341.53454,218.05504 263.05724,302.73788"
       id="path3462"
       sodipodi:nodetypes="ccc"
       inkscape:transform-center-x="41.483125"
       inkscape:transform-center-y="40.495782" />
    <path
       id="path3737"
       d="M 271.47163,359.95302 C 276.39779,362.79234 282.21382,369.86094 289.48079,364.89424 C 306.87349,369.37096 305.92062,354.77224 308.71404,346.40452 L 309.20386,346.14434 C 337.50946,336.15004 317.51995,317.32401 328.56468,307.78268 C 348.27747,292.67598 320.0676,280.20989 292.16475,272.76977 L 296.46234,271.99215 C 273.07502,263.50148 277.17939,289.44779 271.68169,285.57275 C 252.06756,299.61556 243.04492,331.45239 263.51049,340.93733 C 264.74645,347.61109 266.54547,357.11372 271.47163,359.95302 z "
       style="fill:#ffffff;fill-rule:evenodd;stroke:#000000;stroke-width:4.00000048;stroke-linecap:butt;stroke-linejoin:miter;stroke-miterlimit:4;stroke-dasharray:none;stroke-opacity:1"
       sodipodi:nodetypes="cccccccccc"
       inkscape:transform-center-x="87.220488"
       inkscape:transform-center-y="84.881286" />
    <path
       style="fill:none;fill-rule:evenodd;stroke:#000000;stroke-width:3;stroke-linecap:butt;stroke-linejoin:miter;stroke-miterlimit:4;stroke-dasharray:none;stroke-opacity:1"
       d="M 432.54439,325.41306 C 429.4613,313.215 433.23531,306.48371 440.86138,298.929"
       id="path39138"
       sodipodi:nodetypes="cc" />
    <path
       style="fill:none;fill-rule:evenodd;stroke:#000000;stroke-width:3;stroke-linecap:butt;stroke-linejoin:miter;stroke-miterlimit:4;stroke-dasharray:none;stroke-opacity:1"
       d="M 301.46322,366.40556 C 284.73836,362.22178 261.69267,338.0061 276.93378,328.57747"
       id="path40109"
       sodipodi:nodetypes="cc"
       inkscape:transform-center-x="99.595381"
       inkscape:transform-center-y="118.96874" />
    <path
       style="fill:#ffd5d5;fill-rule:evenodd;stroke:#000000;stroke-width:4;stroke-linecap:butt;stroke-linejoin:miter;stroke-miterlimit:4;stroke-dasharray:none;stroke-opacity:1"
       d="M 361.00374,418.61473 C 355.80562,436.61571 308.04781,420.48117 292.41582,401.52639 C 278.91955,394.5577 254.37158,389.90704 266.10733,368.17263"
       id="path35244"
       sodipodi:nodetypes="ccc" />
    <path
       style="fill:#803300;fill-rule:evenodd;stroke:#000000;stroke-width:4;stroke-linecap:butt;stroke-linejoin:miter;stroke-miterlimit:4;stroke-dasharray:none;stroke-opacity:1"
       d="M 359.92398,418.01074 C 345.65164,410.96917 296.36571,398.72198 265.80362,366.55625 C 266.12813,355.28253 275.97484,339.10385 287.84385,340.98787 C 289.41052,327.30818 302.69651,335.13582 314.74331,337.46514 C 327.96841,340.02234 342.7603,343.14987 339.78872,355.77528 C 383.08085,358.3743 381.28735,392.64667 373.19534,407.49737 C 371.02503,411.48037 362.12014,419.09425 359.92398,418.01074 z "
       id="path35240"
       sodipodi:nodetypes="cccscss" />
    <path
       style="fill:#ffd5d5;fill-rule:evenodd;stroke:#000000;stroke-width:4;stroke-linecap:butt;stroke-linejoin:miter;stroke-miterlimit:4;stroke-dasharray:none;stroke-opacity:1"
       d="M 504.71384,372.45318 C 524.58898,384.69249 467.82803,409.97815 443.27102,409.20628 C 429.12688,414.74309 409.42795,430.11131 400.85037,406.94801"
       id="path2434"
       sodipodi:nodetypes="ccc"
       inkscape:transform-center-x="-5.5092939"
       inkscape:transform-center-y="24.227084" />
    <path
       style="fill:#000080;fill-rule:evenodd;stroke:#000000;stroke-width:4;stroke-linecap:butt;stroke-linejoin:miter;stroke-miterlimit:4;stroke-dasharray:none;stroke-opacity:1"
       d="M 340.02543,370.31611 C 293.90023,356.00504 278.35527,311.4204 285.89807,281.46059 C 301.20201,220.67368 351.20414,215.47942 403.48562,242.49645 C 473.53448,274.26766 460.96686,392.51277 340.02543,370.31611 z "
       id="path35234"
       sodipodi:nodetypes="cscc" />
    <path
       style="fill:#f3f146;fill-opacity:1;fill-rule:evenodd;stroke:#000000;stroke-width:4;stroke-linecap:butt;stroke-linejoin:miter;stroke-miterlimit:4;stroke-dasharray:none;stroke-opacity:1"
       d="M 450.61602,302.45389 C 442.86204,304.26995 429.49215,269.1676 435.44936,267.28013 C 445.59263,264.06636 461.19578,299.976 450.61602,302.45389 z "
       id="path37194"
       sodipodi:nodetypes="css" />
    <path
       style="fill:#803300;fill-rule:evenodd;stroke:#000000;stroke-width:4;stroke-linecap:butt;stroke-linejoin:miter;stroke-miterlimit:4;stroke-dasharray:none;stroke-opacity:1"
       d="M 503.35207,373.66304 C 490.70392,383.32266 401.73232,425.98694 393.63328,397.96201 C 388.5104,385.96928 386.11805,373.2625 396.52248,367.24827 C 389.12112,355.6376 404.37036,353.34656 415.19343,347.5662 C 427.07511,341.22043 440.53286,334.33058 446.17898,346.00758 C 473.53459,310.56496 513.85438,365.64222 503.35207,373.66304 z "
       id="path22290"
       sodipodi:nodetypes="cccscs"
       inkscape:transform-center-y="-0.47449464"
       inkscape:transform-center-x="0.36764329" />
    <path
       style="fill:#ff0000;fill-rule:evenodd;stroke:#000000;stroke-width:4;stroke-linecap:butt;stroke-linejoin:miter;stroke-miterlimit:4;stroke-dasharray:none;stroke-opacity:1"
       d="M 398.12397,246.74684 C 405.62161,251.66834 411.91171,259.9034 417.02932,267.87862 C 401.03456,271.681 403.03295,269.5597 389.87706,273.25371 C 384.66697,263.1034 379.99474,259.26188 373.01862,251.90996 C 380.91071,247.35372 389.50045,249.67626 398.12397,246.74684 z "
       id="path35238"
       sodipodi:nodetypes="ccccc" />
    <path
       style="fill:#803300;fill-rule:evenodd;stroke:#000000;stroke-width:4;stroke-linecap:butt;stroke-linejoin:miter;stroke-miterlimit:4;stroke-dasharray:none;stroke-opacity:1"
       d="M 327.20367,230.87581 C 324.98884,207.64062 245.23544,219.10604 286.84049,229.44326 C 295.21124,231.52306 320.42378,231.87077 327.20367,230.87581 z "
       id="path28405"
       sodipodi:nodetypes="csc" />
    <path
       style="fill:#ffb380;fill-rule:evenodd;stroke:#000000;stroke-width:3;stroke-linecap:butt;stroke-linejoin:miter;stroke-miterlimit:4;stroke-dasharray:none;stroke-opacity:1"
       d="M 424.33663,211.35327 C 487.64558,-42.58294 177.78985,64.923854 318.56147,224.72529 C 358.18046,271.31514 416.60545,254.21622 424.33663,211.35327 z "
       id="path16010"
       sodipodi:nodetypes="ccc" />
    <path
       style="fill:#000000;fill-rule:evenodd;stroke:#000000;stroke-width:1px;stroke-linecap:butt;stroke-linejoin:miter;stroke-opacity:1"
       d="M 416.58245,108.63336 C 424.63501,109.01325 431.09085,134.4935 424.97252,142.19364 C 412.94117,147.63162 404.49188,108.06297 416.58245,108.63336 z "
       id="path33290"
       sodipodi:nodetypes="ccs" />
    <path
       style="fill:#800000;fill-rule:evenodd;stroke:#000000;stroke-width:5;stroke-linecap:butt;stroke-linejoin:miter;stroke-miterlimit:4;stroke-dasharray:none;stroke-opacity:1"
       d="M 411.39641,72.351853 C 398.93286,-28.317742 272.84815,61.159987 272.72532,141.47345 C 252.32647,149.27271 251.4062,172.39482 264.77204,180.27515 C 270.97014,207.79006 306.77186,235.57539 297.07049,223.66382 C 284.8878,140.13529 375.2796,45.317298 411.39641,72.351853 z "
       id="path20166"
       sodipodi:nodetypes="ccccc" />
    <path
       style="fill:#ff2a2a;fill-opacity:1;fill-rule:evenodd;stroke:#000000;stroke-width:3;stroke-linecap:butt;stroke-linejoin:miter;stroke-miterlimit:4;stroke-dasharray:none;stroke-opacity:1"
       d="M 412.59297,218.49771 C 417.10551,221.19338 416.66164,214.34608 410.29154,212.78872 C 401.4963,210.63846 388.92681,214.72174 375.12563,203.01392 C 369.84456,266.6961 413.74017,235.40973 412.59297,218.49771 z "
       id="path18931"
       sodipodi:nodetypes="cscc" />
    <path
       style="fill:#ffb380;fill-rule:evenodd;stroke:#000000;stroke-width:4;stroke-linecap:butt;stroke-linejoin:miter;stroke-miterlimit:4;stroke-dasharray:none;stroke-opacity:1"
       d="M 303.28123,175.91726 C 258.08356,130.62024 226.50052,254.56106 319.71574,223.47366"
       id="path31322"
       sodipodi:nodetypes="cc" />
    <path
       style="fill:#000000;fill-rule:evenodd;stroke:#000000;stroke-width:4;stroke-linecap:butt;stroke-linejoin:miter;stroke-miterlimit:4;stroke-dasharray:none;stroke-opacity:1"
       d="M 430.85956,111.83138 C 429.08477,106.42063 422.74601,96.31886 408.7752,94.105038 C 394.96268,91.916299 415.66864,76.127232 411.16567,63.205672 C 478.10312,53.480803 494.19229,74.865629 430.85956,111.83138 z "
       id="path13089"
       sodipodi:nodetypes="cscc" />
    <path
       style="fill:#ffffff;fill-rule:evenodd;stroke:#000000;stroke-width:4;stroke-linecap:butt;stroke-linejoin:miter;stroke-miterlimit:4;stroke-dasharray:none;stroke-opacity:1"
       d="M 400.85471,64.054562 C 393.7923,14.121417 319.13994,44.629071 355.03202,86.643205"
       id="path9173"
       sodipodi:nodetypes="cc" />
    <path
       style="fill:#800000;fill-rule:evenodd;stroke:#ff0000;stroke-width:1px;stroke-linecap:butt;stroke-linejoin:miter;stroke-opacity:1"
       d="M 386.0132,68.000227 L 392.4671,60.900937 L 378.26852,43.475404 L 371.81462,51.865476 L 359.87491,46.702356 L 358.26143,70.581787 L 367.94228,71.872567 L 367.94228,57.028597 L 374.71888,62.514417 L 377.94583,56.060507 L 386.0132,68.000227 z "
       id="path15037"
       sodipodi:nodetypes="ccccccccccc" />
    <path
       style="fill:#800000;fill-opacity:1;fill-rule:evenodd;stroke:#000000;stroke-width:4;stroke-linecap:butt;stroke-linejoin:miter;stroke-miterlimit:4;stroke-dasharray:none;stroke-opacity:1"
       d="M 312.20141,140.26842 C 332.83591,78.817428 424.11937,43.137985 464.93742,71.149587 C 400.58183,80.262311 349.51885,146.90075 312.20141,140.26842 z "
       id="path14066"
       sodipodi:nodetypes="ccc" />
    <path
       style="fill:none;fill-rule:evenodd;stroke:#000000;stroke-width:1px;stroke-linecap:butt;stroke-linejoin:miter;stroke-opacity:1"
       d="M 300.97108,194.39825 C 296.99878,188.88496 294.31301,189.14883 289.30623,188.42643"
       id="path31320"
       sodipodi:nodetypes="cc" />
    <path
       style="fill:none;fill-rule:evenodd;stroke:#000000;stroke-width:2;stroke-linecap:butt;stroke-linejoin:miter;stroke-miterlimit:4;stroke-dasharray:none;stroke-opacity:1"
       d="M 278.77081,179.98379 C 302.82865,179.19238 314.51837,214.95049 290.1798,217.40528"
       id="path30349"
       sodipodi:nodetypes="cc" />
    <path
       style="fill:#800000;fill-rule:evenodd;stroke:#000000;stroke-width:4;stroke-linecap:butt;stroke-linejoin:miter;stroke-miterlimit:4;stroke-dasharray:none;stroke-opacity:1"
       d="M 298.68454,298.17581 C 275.16012,278.78174 315.54587,212.38884 333.96706,242.14907 C 376.71535,273.77354 338.26422,329.93803 298.68454,298.17581 z "
       id="path35230"
       sodipodi:nodetypes="ccc" />
    <path
       style="fill:#552200;fill-rule:evenodd;stroke:#000000;stroke-width:4;stroke-linecap:butt;stroke-linejoin:miter;stroke-miterlimit:4;stroke-dasharray:none;stroke-opacity:1"
       d="M 338.44833,180.01777 C 337.46435,211.64668 306.4074,176.9019 302.0783,174.17011 C 305.28061,159.95117 309.83394,138.31023 313.6103,141.5617 C 315.42184,154.54257 320.99251,163.05061 330.47019,164.1529 C 343.66158,165.68711 354.22449,169.79947 338.44833,180.01777 z "
       id="path32306"
       sodipodi:nodetypes="cccsc" />
    <path
       style="fill:#000000;fill-rule:evenodd;stroke:#000000;stroke-width:1px;stroke-linecap:butt;stroke-linejoin:miter;stroke-opacity:1"
       d="M 374.65503,122.45389 C 382.68834,123.52869 390.81443,150.59946 383.0451,156.01417 C 374.27823,162.1241 362.53637,122.67773 374.65503,122.45389 z "
       id="path33288"
       sodipodi:nodetypes="csc" />
    <path
       style="fill:#2b1100;fill-rule:evenodd;stroke:#000000;stroke-width:4;stroke-linecap:butt;stroke-linejoin:miter;stroke-miterlimit:4;stroke-dasharray:none;stroke-opacity:1"
       d="M 450.16617,190.00094 C 445.82989,174.19624 435.13099,170.9459 415.04547,184.32888 C 414.01118,194.2755 380.49842,177.6195 365.88835,172.65255 C 357.38658,187.23135 362.8985,204.29675 374.69679,202.08776 C 371.06148,220.63958 393.55401,224.32545 407.25493,217.0369 C 412.59956,225.56895 430.34604,221.28019 434.38261,212.01694 C 448.71691,213.5834 455.93836,200.68265 450.16617,190.00094 z "
       id="path17956"
       sodipodi:nodetypes="ccccccc" />
    <path
       style="fill:#ffb380;fill-rule:evenodd;stroke:#000000;stroke-width:4;stroke-linecap:butt;stroke-linejoin:miter;stroke-opacity:1;stroke-miterlimit:4;stroke-dasharray:none"
       d="M 401.7401,154.0412 C 464.89145,61.753259 526.46842,209.38904 409.21745,187.28388"
       id="path17952"
       sodipodi:nodetypes="cs" />
    <path
       style="fill:#800000;fill-rule:evenodd;stroke:#000000;stroke-width:4;stroke-linecap:butt;stroke-linejoin:miter;stroke-miterlimit:4;stroke-dasharray:none;stroke-opacity:1"
       d="M 357.42375,271.16722 C 344.94774,259.10837 337.8304,254.53261 334.95491,248.8067 C 302.45616,184.09278 293.63274,290.56734 337.51518,309.72727"
       id="path31330"
       sodipodi:nodetypes="csc"
       inkscape:transform-center-x="-14.194372"
       inkscape:transform-center-y="26.31201" />
    <path
       sodipodi:type="arc"
       style="fill:#f7f752;fill-opacity:0.98125;stroke:#000000;stroke-width:4;stroke-miterlimit:4;stroke-dasharray:none;stroke-opacity:1"
       id="path36215"
       sodipodi:cx="221.53015"
       sodipodi:cy="209.90425"
       sodipodi:rx="20.491135"
       sodipodi:ry="20.975178"
       d="M 242.02129,209.90425 A 20.491135,20.975178 0 1 1 242.02112,209.82076"
       sodipodi:start="0"
       sodipodi:end="6.2792049"
       sodipodi:open="true"
       transform="matrix(-1,0,0,1,615.06284,91.127663)" />
    <path
       style="fill:none;fill-rule:evenodd;stroke:#000000;stroke-width:3;stroke-linecap:butt;stroke-linejoin:miter;stroke-miterlimit:4;stroke-dasharray:none;stroke-opacity:1"
       d="M 395.99923,367.66156 C 405.98926,367.72118 420.74782,358.32947 431.91317,353.61157"
       id="path22296"
       sodipodi:nodetypes="cc"
       inkscape:transform-center-x="33.567285"
       inkscape:transform-center-y="-10.631382" />
    <path
       style="fill:#ffffff;fill-rule:evenodd;stroke:#000000;stroke-width:4;stroke-linecap:butt;stroke-linejoin:miter;stroke-miterlimit:4;stroke-dasharray:none;stroke-opacity:1"
       d="M 346.88884,322.85689 C 345.17547,326.09587 337.39263,326.63883 335.4579,322.06146 C 323.56645,311.26446 355.44569,256.77489 370.54254,268.82104 C 396.76119,257.48522 417.51751,261.65186 412.07127,276.71257 C 472.45367,314.6592 376.35896,406.15022 345.37282,324.54169"
       id="path6249"
       sodipodi:nodetypes="ccccc"
       inkscape:transform-center-x="-63.937863"
       inkscape:transform-center-y="67.237854" />
    <path
       style="fill:#000000;fill-rule:evenodd;stroke:#000000;stroke-width:1px;stroke-linecap:butt;stroke-linejoin:miter;stroke-opacity:1"
       d="M 366.63928,328.18317 C 391.59923,333.4773 383.97527,353.76234 362.7695,329.78662 C 360.71365,327.1693 364.26537,327.89796 366.63928,328.18317 z "
       id="path22282"
       sodipodi:nodetypes="ccc"
       inkscape:transform-center-x="-53.927271"
       inkscape:transform-center-y="91.914327" />
    <path
       style="fill:#000000;fill-rule:evenodd;stroke:#000000;stroke-width:1px;stroke-linecap:butt;stroke-linejoin:miter;stroke-opacity:1"
       d="M 381.6848,304.38371 C 406.64474,309.67782 398.79423,329.93567 377.58846,305.95994 C 375.53262,303.34263 379.31087,304.09848 381.6848,304.38371 z "
       id="path22279"
       sodipodi:nodetypes="ccc"
       inkscape:transform-center-x="-68.825728"
       inkscape:transform-center-y="68.100042" />
    <path
       style="fill:none;fill-rule:evenodd;stroke:#000000;stroke-width:4;stroke-linecap:butt;stroke-linejoin:miter;stroke-miterlimit:4;stroke-dasharray:none;stroke-opacity:1"
       d="M 412.02624,277.32177 C 410.18436,281.875 408.0122,286.28833 406.26076,290.87796"
       id="path7343"
       sodipodi:nodetypes="cc"
       inkscape:transform-center-x="-90.853897"
       inkscape:transform-center-y="41.460419" />
    <path
       style="fill:none;fill-rule:evenodd;stroke:#000000;stroke-width:4;stroke-linecap:round;stroke-linejoin:miter;stroke-miterlimit:4;stroke-dasharray:none;stroke-opacity:1"
       d="M 396.42248,283.04902 C 401.18871,286.29308 407.11676,289.61422 412.83203,291.19585 C 413.0296,291.27125 413.53607,291.59018 413.59451,291.61247"
       id="path8316"
       sodipodi:nodetypes="ccc"
       inkscape:transform-center-x="-86.718892"
       inkscape:transform-center-y="44.691299" />
  </g>
</svg>
